<?xml version="1.0" encoding="UTF-8" standalone="no"?>
<!-- Created with Inkscape (http://www.inkscape.org/) -->

<svg
   xmlns:dc="http://purl.org/dc/elements/1.1/"
   xmlns:cc="http://creativecommons.org/ns#"
   xmlns:rdf="http://www.w3.org/1999/02/22-rdf-syntax-ns#"
   xmlns:svg="http://www.w3.org/2000/svg"
   xmlns="http://www.w3.org/2000/svg"
   xmlns:sodipodi="http://sodipodi.sourceforge.net/DTD/sodipodi-0.dtd"
   xmlns:inkscape="http://www.inkscape.org/namespaces/inkscape"
   width="210mm"
   height="297mm"
   viewBox="0 0 210 297"
   version="1.1"
   id="svg8"
   inkscape:version="0.92.5 (2060ec1f9f, 2020-04-08)"
   sodipodi:docname="logo.svg">
  <defs
     id="defs2" />
  <sodipodi:namedview
     id="base"
     pagecolor="#ffffff"
     bordercolor="#666666"
     borderopacity="1.0"
     inkscape:pageopacity="0.0"
     inkscape:pageshadow="2"
     inkscape:zoom="0.35"
     inkscape:cx="400"
     inkscape:cy="560"
     inkscape:document-units="mm"
     inkscape:current-layer="layer1"
     showgrid="false"
     inkscape:window-width="1920"
     inkscape:window-height="1016"
     inkscape:window-x="0"
     inkscape:window-y="27"
     inkscape:window-maximized="1" />
  <metadata
     id="metadata5">
    <rdf:RDF>
      <cc:Work
         rdf:about="">
        <dc:format>image/svg+xml</dc:format>
        <dc:type
           rdf:resource="http://purl.org/dc/dcmitype/StillImage" />
        <dc:title></dc:title>
      </cc:Work>
    </rdf:RDF>
  </metadata>
  <g
     inkscape:label="Capa 1"
     inkscape:groupmode="layer"
     id="layer1">
    <path
       style="fill:none;stroke:#000000;stroke-width:0.26458332px;stroke-linecap:butt;stroke-linejoin:miter;stroke-opacity:1"
       d="m 35.52976,175.29167 c 1.259922,-0.75596 2.519842,-1.51191 3.779764,-2.26786 0.251984,0 0.530571,0.11269 0.755951,0 0.318739,-0.15937 0.437216,-0.59659 0.755952,-0.75596 0.225383,-0.11268 0.516901,0.0797 0.755954,0 0.534538,-0.17817 0.977366,-0.57777 1.511903,-0.75595 0.239054,-0.0797 0.530572,0.11269 0.755955,0 0.318735,-0.15937 0.437213,-0.59658 0.755951,-0.75595 0.22538,-0.11269 0.530572,0.11269 0.755952,0 0.318738,-0.15937 0.437216,-0.59658 0.755952,-0.75595 0.450765,-0.22538 1.061143,0.22538 1.511905,0 0.318739,-0.15937 0.437216,-0.59659 0.755952,-0.75596 0.475133,-0.23756 2.548678,0.23757 3.023809,0 0.318738,-0.15936 0.437216,-0.59658 0.755954,-0.75595 0.450763,-0.22538 1.033799,0.15937 1.511904,0 0.53454,-0.17818 0.977365,-0.57777 1.511905,-0.75595 0.426506,-0.14217 1.771116,0 2.267858,0 1.259919,0 2.519841,0 3.779761,0 0.395303,0 2.825038,0.0994 3.023809,0 0.318738,-0.15937 0.437216,-0.59658 0.755954,-0.75595 0.22538,-0.11269 0.516898,0.0797 0.755952,0 0.534537,-0.17818 0.965274,-0.6193 1.511903,-0.75595 0.488921,-0.12223 1.033798,0.15936 1.511906,0 0.409151,-0.13639 1.771216,-1.93677 2.267857,-2.26786 0.380693,-1.66549 1.555139,-0.39959 2.267858,-0.75595 0.403741,-0.20188 1.869874,-1.86988 2.267857,-2.26786 1.511904,-1.5119 3.023809,-3.02381 4.535713,-4.53572 0.776679,-0.77667 4.199159,-3.94674 4.535715,-4.53571 0.515466,-0.90207 0.427405,-2.03817 0.755951,-3.02381 0.56574,-1.69721 1.405274,-2.05459 2.267858,-3.77976 0.356359,-0.71272 0.460012,-1.52801 0.755951,-2.26786 0.209262,-0.52315 0.546693,-0.98875 0.755955,-1.5119 0.295939,-0.73985 0.460012,-1.52801 0.755951,-2.26786 0.209262,-0.52315 0.54669,-0.98875 0.755952,-1.5119 0.295942,-0.73985 0.460012,-1.52801 0.755954,-2.26786 0.731163,-1.82791 1.870363,-3.3042 2.267855,-5.29167 0.09884,-0.49418 -0.12223,-1.02298 0,-1.5119 0.13666,-0.54663 0.645451,-0.95939 0.755954,-1.51191 0.148254,-0.74127 -0.239053,-1.55069 0,-2.26786 0.287306,-0.86191 1.105591,-1.45523 1.511903,-2.26785 0.302382,-0.60476 -0.302379,-1.6631 0,-2.26786 0.15937,-0.31874 0.596586,-0.43721 0.755955,-0.75595 0.112688,-0.22538 0,-0.50397 0,-0.75595 0,-0.25199 0.251984,-0.75596 0,-0.75596 -0.363813,0 -2.659999,3.02381 -3.023812,3.02381 -0.251984,0 0,-0.50396 0,-0.75595 0,-0.25198 0,-0.50397 0,-0.75595 0,-0.50397 0,-1.00794 0,-1.51191 0,-1.70787 -0.112689,0.33808 0.755954,-2.26785 0.267761,-0.80329 -0.267761,-2.22053 0,-3.02381 0.178179,-0.53454 0.577771,-0.97737 0.755952,-1.51191 0.07968,-0.23905 0,-0.50397 0,-0.75595 0,-0.78613 -0.148662,-3.94107 0,-4.53571 0.136657,-0.54663 0.619294,-0.96528 0.755951,-1.51191 0.122233,-0.48892 -0.122229,-1.02298 0,-1.5119 0.136658,-0.54663 0.619295,-0.96528 0.755955,-1.51191 0.122229,-0.48892 -0.122233,-1.02298 0,-1.511903 0.273314,-1.09326 1.155544,-1.954731 1.511903,-3.023809 0.07968,-0.239053 -0.112691,-0.530571 0,-0.755951 0.159369,-0.318738 0.643263,-0.41788 0.755952,-0.755954 1.72985,-5.189546 -2.8945,3.521143 0.755954,-3.779761 0.159369,-0.318738 0.558276,-0.459444 0.755956,-0.755952 0.31254,-0.468823 0.4434,-1.043085 0.75595,-1.511906 0.19767,-0.296508 0.55828,-0.459443 0.75595,-0.755951 0.31255,-0.468823 0.44341,-1.043083 0.75595,-1.511906 0.19768,-0.296508 0.50397,-0.503968 0.75595,-0.755952 0.25199,-0.503968 0.44341,-1.043083 0.75596,-1.511906 0.43487,-0.652311 1.67739,-1.677392 2.26785,-2.267857 0.59047,-0.590463 1.61555,-1.832983 2.26786,-2.267855 0.46882,-0.31255 1.04308,-0.443405 1.51191,-0.755954 0.2965,-0.197673 0.43721,-0.596583 0.75595,-0.755952 0.22538,-0.112691 0.53057,0.112691 0.75595,0 0.31874,-0.159369 0.50397,-0.503968 0.75595,-0.755952 0.25199,-0.251983 0.50397,-0.50397 0.75596,-0.755954 2.50717,-2.507178 -0.71272,0.35636 1.5119,-0.755951 0.63748,-0.318739 0.87443,-1.193168 1.51191,-1.511904 0.22538,-0.112691 0.53057,0.112689 0.75595,0 2.30532,-1.152662 -1.3826,-0.599291 2.26785,-1.511906 3.4597,-0.864925 -0.78601,1.526935 3.77977,-0.755951 0.31873,-0.159369 0.43721,-0.596585 0.75595,-0.755954 0.71272,-0.35636 1.52801,-0.46001 2.26786,-0.755952 0.52315,-0.209262 1.00793,-0.503968 1.5119,-0.755952 0.50397,-0.251983 1.04308,-0.443404 1.51191,-0.755951 1.72984,-1.153234 -0.4727,-0.59839 2.26785,-1.511906 0.23906,-0.07968 0.53057,0.112691 0.75596,0 0.31873,-0.159369 0.43721,-0.596583 0.75595,-0.755952 0.23006,-0.115033 1.92741,0 2.26785,0 1.76389,0 3.52778,0 5.29167,0 5.29167,0 10.58333,0 15.875,0 2.26786,0 4.53572,0 6.80357,0 0.39531,0 2.82504,-0.09938 3.02381,0 0.31874,0.159369 0.43722,0.596583 0.75595,0.755952 0.22539,0.112691 0.53058,-0.112691 0.75596,0 0.31873,0.159369 0.43721,0.596582 0.75595,0.755952 0.47691,0.238453 3.30285,-0.238454 3.77976,0 0.31874,0.159369 0.43722,0.596585 0.75595,0.755954 0.60477,0.302379 1.6631,-0.302382 2.26786,0 0.31874,0.159366 0.50397,0.503968 0.75595,0.755951 0.59047,0.590463 1.61555,1.832983 2.26786,2.267858 0.46882,0.312547 1.04308,0.443404 1.5119,0.755951 0.65232,0.434875 1.6774,1.677393 2.26786,2.267858 0.25199,0.251984 0.50397,0.503968 0.75595,0.755952 0.25199,0.251983 0.59659,0.437216 0.75596,0.755951 0.22538,0.450763 -0.22538,1.061143 0,1.511906 0.15936,0.318738 0.59658,0.437213 0.75595,0.755952 0.11492,0.229838 0,2.501807 0,3.023809 0,2.267857 0,4.535715 0,6.803572 0,3.023809 0,6.047619 0,9.071428 0,0.50397 0,1.007938 0,1.511905 0,0.503973 0.12223,1.022983 0,1.511903 -0.27332,1.09326 -1.23859,1.93055 -1.51191,3.02381 -0.12223,0.48892 0.15937,1.0338 0,1.51191 -0.11269,0.33807 -0.59658,0.43721 -0.75595,0.75595 -0.35636,0.71272 -0.56269,1.4948 -0.75595,2.26785 -0.0611,0.24447 0.11269,0.53058 0,0.75596 -0.15937,0.31873 -0.55828,0.45944 -0.75595,0.75595 -1.66549,0.38069 -0.3996,1.55514 -0.75596,2.26786 -0.15936,0.31874 -0.59658,0.43721 -0.75595,0.75595 -0.11269,0.22538 0.11269,0.53057 0,0.75595 -0.15937,0.31874 -0.55828,0.45945 -0.75595,0.75596 -0.31255,0.46882 -0.44341,1.04308 -0.75595,1.5119 -0.19768,0.29651 -0.55828,0.45944 -0.75595,0.75595 -0.83923,1.25884 -1.39205,3.36796 -2.26786,4.53572 -0.64145,0.85526 -1.67484,1.37833 -2.26786,2.26785 -0.62509,0.93765 -0.93212,2.0575 -1.5119,3.02381 -0.46744,0.77907 -1.04447,1.48879 -1.51191,2.26786 -0.28989,0.48316 -0.41788,1.06114 -0.75595,1.51191 -0.42763,0.57017 -1.08427,0.94172 -1.51191,1.5119 -0.33807,0.45076 -0.46605,1.02875 -0.75595,1.5119 -0.46744,0.77907 -1.04446,1.48879 -1.5119,2.26786 -0.86138,1.43563 -1.33967,3.14343 -2.26786,4.53571 -0.19767,0.29652 -0.55828,0.45945 -0.75595,0.75596 -0.6251,0.93764 -0.88681,2.08616 -1.51191,3.02381 -0.19767,0.29651 -0.55828,0.45944 -0.75595,0.75595 -0.9304,1.39561 -1.33745,3.14011 -2.26786,4.53571 -0.19767,0.29651 -0.55828,0.45945 -0.75595,0.75596 -0.31255,0.46882 -0.4434,1.04308 -0.75595,1.5119 -0.19767,0.29651 -0.59659,0.43722 -0.75595,0.75595 -0.11269,0.22538 0.11269,0.53058 0,0.75596 -0.15937,0.31873 -0.55828,0.45944 -0.75596,0.75595 -0.62509,0.93764 -0.88681,2.08616 -1.5119,3.02381 -0.39535,0.59301 -1.11656,0.91888 -1.51191,1.5119 -0.62509,0.93765 -0.93211,2.0575 -1.5119,3.02381 -0.46744,0.77907 -1.10559,1.45524 -1.51191,2.26786 -0.11269,0.22538 0.13978,0.54629 0,0.75595 -0.39534,0.59302 -1.11656,0.91889 -1.5119,1.51191 -0.13978,0.20966 0.11269,0.53057 0,0.75595 -0.15937,0.31874 -0.55828,0.45944 -0.75595,0.75595 -0.31255,0.46882 -0.44341,1.04308 -0.75595,1.5119 -0.19768,0.29652 -0.59659,0.43722 -0.75596,0.75596 -0.11269,0.22538 0.11269,0.53057 0,0.75595 -0.15937,0.31874 -0.55828,0.45944 -0.75595,0.75595 -0.31255,0.46883 -0.4434,1.04309 -0.75595,1.51191 -0.59302,0.88952 -1.62641,1.41259 -2.26786,2.26786 -0.33807,0.45076 -0.41788,1.06114 -0.75595,1.5119 -0.42763,0.57017 -1.08427,0.94173 -1.51191,1.5119 -0.67614,0.90153 -0.88681,2.08617 -1.5119,3.02381 -0.19767,0.29651 -0.50397,0.50397 -0.75595,0.75596 -0.50397,0.50396 -1.00794,1.00793 -1.51191,1.5119 -0.25198,0.25199 -0.59658,0.43721 -0.75595,0.75595 -0.35636,0.71272 -0.39959,1.55514 -0.75595,2.26786 -0.19524,0.39048 -3.52334,3.52334 -3.77976,3.77976 -1.25993,1.25992 -2.51985,2.51984 -3.77977,3.77976 -0.50397,0.50397 -0.91888,1.11656 -1.5119,1.51191 -1.39561,0.9304 -3.14011,1.33745 -4.53572,2.26786 -0.2965,0.19767 -0.45944,0.55827 -0.75595,0.75595 -0.93764,0.62509 -2.08616,0.88681 -3.02381,1.5119 -0.29651,0.19768 -0.41788,0.64326 -0.75595,0.75595 -0.47811,0.15937 -1.06114,-0.22538 -1.5119,0 -0.63748,0.31874 -0.91889,1.11656 -1.51191,1.51191 -0.20966,0.13977 -0.53057,-0.11269 -0.75595,0 -0.31874,0.15937 -0.45945,0.55828 -0.75595,0.75595 -0.3807,1.66549 -1.55514,0.39959 -2.26786,0.75595 -0.31874,0.15937 -0.45944,0.55829 -0.75595,0.75596 -0.46883,0.31254 -1.00794,0.50397 -1.51191,0.75595 -0.50397,0.25198 -0.97736,0.57777 -1.5119,0.75595 -0.23905,0.0797 -0.5169,-0.0797 -0.75596,0 -1.06907,0.35636 -1.95473,1.15555 -3.0238,1.51191 -0.23906,0.0797 -0.5169,-0.0797 -0.755956,0 -1.5875,0.52916 -2.948215,1.73869 -4.535715,2.26785 -0.478108,0.15937 -1.061141,-0.22538 -1.511906,0 -0.318736,0.15937 -0.41788,0.64326 -0.755952,0.75596 -0.478104,0.15937 -1.033798,-0.15937 -1.511903,0 -0.338074,0.11269 -0.41788,0.64326 -0.755954,0.75595 -0.478105,0.15937 -1.022983,-0.12223 -1.511903,0 -0.546632,0.13665 -0.965274,0.61929 -1.511906,0.75595 -0.488921,0.12223 -1.022983,-0.12223 -1.511904,0 -0.546631,0.13666 -0.965276,0.6193 -1.511905,0.75595 -0.488921,0.12223 -1.033799,-0.15937 -1.511906,0 -0.338072,0.11269 -0.417881,0.64326 -0.755952,0.75596 -0.478105,0.15936 -1.022982,-0.12223 -1.511903,0 -0.546632,0.13665 -0.965277,0.61929 -1.511906,0.75595 -0.977842,0.24446 -2.045967,-0.24446 -3.023809,0 -3.925335,0.98133 0.807011,0.75595 -3.023809,0.75595 -0.786135,0 -3.941069,-0.14866 -4.535715,0 -0.546629,0.13666 -0.965274,0.6193 -1.511906,0.75595 -0.574876,0.14372 -3.146735,0 -3.779761,0 -0.503968,0 -1.033798,-0.15937 -1.511906,0 -0.338071,0.11269 -0.41788,0.64326 -0.755951,0.75595 -0.478105,0.15937 -1.022983,-0.12223 -1.511904,0 -0.546631,0.13666 -0.965276,0.6193 -1.511905,0.75596 -1.185807,0.29645 -2.593954,-0.29645 -3.779761,0 -0.546632,0.13666 -0.977366,0.57777 -1.511906,0.75595 -0.409125,0.13637 -2.766277,0 -3.023809,0 -1.76389,0 -3.527777,0 -5.291667,0 -1.763889,0 -3.527777,0 -5.291666,0 -0.34045,0 -2.037795,0.11503 -2.267858,0 -0.318738,-0.15937 -0.459443,-0.55828 -0.755951,-0.75595 -0.468824,-0.31255 -1.043083,-0.44341 -1.511906,-0.75596 -0.652312,-0.43487 -1.677392,-1.67739 -2.267858,-2.26785 -0.503968,-0.50397 -1.007935,-1.00794 -1.511903,-1.51191 -0.251984,-0.25198 -0.558281,-0.45944 -0.755954,-0.75595 -0.312547,-0.46882 -0.443405,-1.04308 -0.755952,-1.5119 -0.850154,-1.27524 -1.810755,-1.19541 -2.267857,-3.02381 -0.12223,-0.48892 0,-1.00794 0,-1.51191 0,-0.25198 0.112691,-0.53057 0,-0.75595 -0.15937,-0.31874 -0.643261,-0.41788 -0.755952,-0.75595 0,-3.44131 0.356359,-0.0432 -0.755952,-2.26786 -0.302381,-0.60476 0.302381,-1.6631 0,-2.26786 -0.159369,-0.31874 -0.643262,-0.41788 -0.755953,-0.75595 -0.171425,-0.51427 0.200418,-3.37893 0,-3.77976 -0.159368,-0.31874 -0.596583,-0.43722 -0.755952,-0.75595 -0.112691,-0.22539 0,-0.50397 0,-0.75596 0,-0.50397 0,-1.00793 0,-1.5119 0,-1.25992 0,-2.51984 0,-3.77976 0,-0.50397 0,-1.00794 0,-1.51191 0,-0.25198 0.07968,-0.5169 0,-0.75595 -0.17818,-0.53454 -0.577773,-0.97736 -0.755952,-1.51191 -0.150251,-0.45075 0,-3.80329 0,-4.53571 0,-0.34045 -0.115031,-2.03779 0,-2.26786 0.06485,-0.12969 2.173947,-2.23655 2.267857,-2.26785 0.478106,-0.15937 1.033799,0.15937 1.511904,0 1.525272,-0.50843 5.29e-4,-1.51217 1.511905,-2.26786 0.225381,-0.11269 0.503968,0 0.755952,0 0.251984,0 0.503968,0 0.755952,0 2.85896,0 1.848466,-0.2097 5.291666,1.51191 z"
       id="path3713"
       inkscape:connector-curvature="0" />
    <path
       style="fill:none;stroke:#000000;stroke-width:0.26458332px;stroke-linecap:butt;stroke-linejoin:miter;stroke-opacity:1"
       d="M 37.041666,217.625 95.249999,199.48214 123.22024,178.31547 183.69643,95.160712"
       id="path3715"
       inkscape:connector-curvature="0"
       sodipodi:nodetypes="cccc" />
    <ellipse
       id="path3717"
       cx="49.514877"
       cy="181.33928"
       rx="10.205357"
       ry="8.3154755"
       style="stroke-width:0.26458332" />
    <ellipse
       id="path3719"
       cx="81.264877"
       cy="170.37798"
       rx="10.205358"
       ry="6.4255958"
       style="stroke-width:0.26458332" />
    <circle
       id="path3721"
       cx="109.61309"
       cy="145.05356"
       r="9.0714283"
       style="stroke-width:0.26458332" />
    <ellipse
       id="path3723"
       cx="114.52679"
       cy="113.68154"
       rx="7.1815472"
       ry="5.6696429"
       style="stroke-width:0.26458332" />
    <ellipse
       id="path3725"
       cx="113.77083"
       cy="91.758926"
       rx="10.20536"
       ry="5.6696434"
       style="stroke-width:0.26458332" />
    <path
       style="fill:none;stroke:#000000;stroke-width:0.26458332px;stroke-linecap:butt;stroke-linejoin:miter;stroke-opacity:1"
       d="m 39.309524,173.02381 c 0,0 16.630951,44.60119 -2.267858,44.60119"
       id="path3727"
       inkscape:connector-curvature="0" />
    <path
       style="fill:#ececec;stroke-width:2.85714293"
       d="m 167.14286,709.82917 c -12.02377,-7.35134 -16.04727,-13.00737 -16.33013,-22.95608 -0.32841,-11.5506 7.50699,-22.80006 19.31773,-27.73491 25.54514,-10.67344 54.01236,4.17607 53.33999,27.82403 -0.6349,22.3305 -34.63158,36.13192 -56.32759,22.86696 z"
       id="path3731"
       inkscape:connector-curvature="0"
       transform="scale(0.26458333)" />
    <path
       style="fill:#ececec;stroke-width:2.85714293"
       d="m 287.14175,662.71826 c -11.72478,-5.32644 -16.29637,-11.56304 -15.20534,-20.74324 1.51373,-12.73699 14.00486,-19.74105 35.20645,-19.74105 14.0062,0 19.9949,1.37563 26.21905,6.02263 11.06338,8.26 11.21552,22.43829 0.32801,30.56699 -9.6979,7.24053 -34.59726,9.32385 -46.54817,3.89467 z"
       id="path3733"
       inkscape:connector-curvature="0"
       transform="scale(0.26458333)" />
    <path
       style="fill:#ececec;stroke-width:2.85714293"
       d="m 394.27695,572.94826 c -10.95833,-9.93054 -14.54796,-22.09343 -10.33178,-35.00761 3.71285,-11.37246 18.95258,-22.84954 30.34054,-22.84954 11.38797,0 26.6277,11.47708 30.34055,22.84954 6.73769,20.63759 -8.99515,42.86475 -30.34055,42.86475 -8.36252,0 -13.61405,-2.0622 -20.00876,-7.85714 z"
       id="path3735"
       inkscape:connector-curvature="0"
       transform="scale(0.26458333)" />
    <path
       style="fill:#ececec;stroke-width:2.85714293"
       d="m 416.0996,443.45517 c -9.29741,-7.31334 -9.97815,-19.54693 -1.51392,-27.20695 8.12948,-7.35707 28.41345,-7.35707 36.54293,0 13.45908,12.1803 1.90544,33.12861 -18.27147,33.12861 -5.07616,0 -12.61705,-2.66475 -16.75754,-5.92166 z"
       id="path3737"
       inkscape:connector-curvature="0"
       transform="scale(0.26458333)" />
    <path
       style="fill:#ff0000;stroke-width:2.85714293"
       d="m 405.66971,361.20216 c -7.6568,-4.08975 -10.16312,-7.40131 -10.85497,-14.34246 -0.8156,-8.18282 0.25081,-9.547 11.42857,-14.61973 6.78047,-3.07713 17.47098,-5.59479 23.75669,-5.59479 6.28571,0 16.97622,2.51766 23.75669,5.59479 11.17776,5.07273 12.24417,6.43691 11.42857,14.61973 -0.69185,6.94115 -3.19817,10.25271 -10.85497,14.34246 -13.0136,6.951 -35.64698,6.951 -48.66058,0 z"
       id="path3739"
       inkscape:connector-curvature="0"
       transform="scale(0.26458333)" />
    <path
       style="fill:#ff0000;stroke-width:2.85714293"
       d="m 121.32087,805.69488 c -10.65656,-12.08695 -14.73866,-19.69539 -18.86268,-35.1573 -5.764582,-21.61273 -12.82099,-89.51427 -10.052247,-96.7295 0.953336,-2.48436 4.980572,-5.75161 8.949417,-7.26056 3.96884,-1.50895 7.21607,-4.06108 7.21607,-5.6714 0,-3.84996 9.39043,-3.734 18.07558,0.22322 5.14591,2.34464 8.56383,2.26914 13.35494,-0.29498 8.95336,-4.7917 11.14914,-0.20329 9.41517,19.6744 -1.2883,14.76873 -0.71759,16.79571 7.1959,25.55781 9.93131,10.99629 14.81555,32.69152 14.81555,65.80892 0,31.98159 -6.28715,42.79144 -27.53972,47.3506 -8.21217,1.7617 -10.11491,0.62339 -22.56798,-13.50121 z"
       id="path3741"
       inkscape:connector-curvature="0"
       transform="scale(0.26458333)" />
    <path
       style="fill:#ff0000;stroke-width:2.85714293"
       d=""
       id="path3743"
       inkscape:connector-curvature="0"
       transform="scale(0.26458333)" />
    <path
       style="fill:#f9f9f9;stroke-width:2.85714293"
       d="m 160,819.63794 c 3.92857,-2.08768 49.53851,-16.93811 101.35543,-33.00091 51.81691,-16.06283 97.45976,-30.97049 101.42857,-33.12812 3.9688,-2.15765 29.40373,-21.00577 56.52205,-41.88468 l 49.30606,-37.96169 112.8368,-155.36774 c 99.42312,-136.89813 112.83663,-154.22017 112.83538,-145.71429 -8e-4,5.30941 -2.54878,16.3555 -5.66215,24.54688 -6.65505,17.50956 -27.00311,56.32092 -34.88314,66.53515 -8.16006,10.57725 -32.22106,49.0945 -57.5022,92.05051 -44.74469,76.02708 -65.19389,107.61281 -85.52251,132.09752 -4.32143,5.20492 -7.85715,10.61394 -7.85715,12.02006 0,6.6172 -40.24117,41.34403 -60,51.77806 -11.78571,6.22368 -26.14513,13.9724 -31.90982,17.2194 -34.72204,19.5574 -96.89486,38.29311 -148.09018,44.62688 -19.64285,2.43014 -42.14285,5.64437 -50,7.14272 C 205,822.096 188.28571,823.34709 175.71429,823.37783 155.04548,823.4284 153.541,823.07034 160,819.63794 Z"
       id="path3745"
       inkscape:connector-curvature="0"
       transform="scale(0.26458333)" />
    <path
       style="fill:#1a1a1a;stroke-width:2.85714293"
       d="m 418.57143,363.85878 c -15.89676,-3.82257 -21.42857,-8.36227 -21.42857,-17.58541 0,-7.22191 1.69608,-9.32536 10.47807,-12.99471 13.37276,-5.5875 31.38538,-5.5875 44.75814,0 8.79231,3.67366 10.47807,5.76868 10.47807,13.02186 0,6.56071 -1.89354,9.60235 -7.85714,12.62109 -10.58192,5.35649 -25.99665,7.44566 -36.42857,4.93717 z"
       id="path3747"
       inkscape:connector-curvature="0"
       transform="scale(0.26458333)" />
    <path
       style="fill:#1a1a1a;stroke-width:2.85714293"
       d="m 154.28571,821.00771 c 2.35715,-1.36457 49.75555,-16.67862 105.32978,-34.03125 l 101.04407,-31.5502 53.24165,-40.20272 53.24165,-40.20268 L 580,519.69238 c 98.25269,-135.22796 112.97351,-154.25767 113.75649,-147.05367 1.80688,16.62498 -17.98543,57.91653 -54.17303,113.01805 -11.55663,17.59682 -31.06263,49.09682 -43.34666,70 -44.40649,75.56436 -65.14389,107.60887 -85.52251,132.15381 -4.32143,5.20492 -7.85715,10.61394 -7.85715,12.02006 0,6.6172 -40.24117,41.34403 -60,51.77806 -11.78571,6.22368 -26.14513,13.9724 -31.90982,17.2194 -34.51661,19.44168 -96.3466,38.09431 -148.09018,44.67525 -19.64285,2.49826 -42.14285,5.72946 -50,7.18043 -18.51137,3.41849 -64.35485,3.67206 -58.57143,0.32394 z"
       id="path3749"
       inkscape:connector-curvature="0"
       transform="scale(0.26458333)" />
    <path
       style="fill:#1a1a1a;stroke-width:2.85714293"
       d="m 187.14286,811.75329 c 14.14285,-4.67392 59.14285,-19.01906 100,-31.87815 l 74.28571,-23.38011 53.13113,-39.98766 53.13113,-39.98768 68.29746,-93.9961 c 125.85602,-173.2126 153.77305,-209.63955 154.90442,-202.12376 1.5102,10.03222 -20.36051,52.92929 -57.24408,112.27812 -17.91529,28.82724 -45.99377,74.64361 -62.39666,101.81416 -31.83511,52.73332 -59.86023,93.30232 -80.16511,116.04658 -32.92323,36.87851 -102.60679,73.1156 -176.34884,91.70551 -30.00651,7.56443 -109.00672,18.49154 -131.88088,18.2414 l -21.42857,-0.23429 25.71429,-8.498 z"
       id="path3751"
       inkscape:connector-curvature="0"
       transform="scale(0.26458333)" />
    <path
       style="fill:#1a1a1a;stroke-width:2.85714293"
       d="m 125.00657,807.23397 c -5.74137,-5.89286 -13.09205,-16.72682 -16.33484,-24.07547 -6.73745,-15.26807 -14.256333,-63.23617 -14.333673,-91.44426 -0.04824,-17.59589 0.563344,-19.52957 7.808563,-24.68862 6.12289,-4.35988 12.12399,-5.50838 27.14237,-5.19456 l 19.28146,0.40291 4.9e-4,18.04778 c 4e-4,14.64328 1.29822,19.76345 6.87998,27.14286 9.63863,12.74282 13.67698,30.48414 13.7611,60.4555 0.0846,30.1435 -2.94932,39.58889 -14.66167,45.64559 -12.79453,6.6163 -18.06014,5.49492 -29.54378,-6.29173 z"
       id="path3753"
       inkscape:connector-curvature="0"
       transform="scale(0.26458333)" />
    <path
       style="fill:#1a1a1a;stroke-width:2.85714293"
       d="m 124.34055,803.34701 c -5.83555,-6.45926 -12.40176,-16.03216 -14.59157,-21.27313 -5.81592,-13.91946 -12.738237,-57.27164 -13.432056,-84.12057 -0.553735,-21.42805 -0.05528,-23.76561 6.142456,-28.80563 5.1958,-4.22524 11.26625,-5.48514 26.42857,-5.48514 h 19.68348 v 16.74153 c 0,12.98705 1.93002,20.51583 8.60613,33.57143 14.74081,28.82668 15.44574,80.18063 1.29488,94.33149 -10.58874,10.58874 -21.51963,9.00029 -34.13189,-4.95998 z"
       id="path3755"
       inkscape:connector-curvature="0"
       transform="scale(0.26458333)" />
    <path
       style="fill:#f2f2f2;stroke-width:2.85714293"
       d="m 123.08673,801.81668 c -14.05446,-15.9667 -18.82106,-30.68565 -24.791904,-76.55565 -7.025157,-53.96961 -3.196712,-61.59849 30.912334,-61.59849 h 19.36427 v 15.39351 c 0,11.12279 2.37389,20.46638 8.55653,33.67838 14.69078,31.39349 15.39596,81.52108 1.34448,95.57256 -11.03833,11.03833 -21.67341,9.08769 -35.38571,-6.49031 z"
       id="path3757"
       inkscape:connector-curvature="0"
       transform="scale(0.26458333)" />
    <path
       style="fill:#f2f2f2;stroke-width:2.85714293"
       d="m 409.71332,359.58271 c -10.3247,-4.4946 -13.74817,-11.23812 -9.6206,-18.95055 7.11084,-13.28674 52.78815,-13.12897 59.92533,0.20698 8.88981,16.61074 -25.64518,29.4785 -50.30473,18.74357 z"
       id="path3759"
       inkscape:connector-curvature="0"
       transform="scale(0.26458333)" />
    <path
       style="fill:#f2f2f2;stroke-width:2.85714293"
       d="m 138.57143,812.15919 c -18.07651,-6.92352 -30.7049,-32.41983 -36.93847,-74.57761 -9.231601,-62.43354 -6.623844,-69.66557 26.22418,-72.72689 l 20.71429,-1.93049 v 15.03006 c 0,9.34132 3.33769,24.75095 8.8184,40.71328 18.07829,52.65228 7.80542,103.68888 -18.8184,93.49165 z"
       id="path3761"
       inkscape:connector-curvature="0"
       transform="scale(0.26458333)" />
    <path
       style="fill:#000000;stroke-width:2.85714293"
       d="m 140,812.88915 c -7.42016,-2.36868 -20.29486,-15.92516 -26.40002,-27.79804 -6.93778,-13.49208 -16.23977,-64.05569 -16.36732,-88.96918 -0.126498,-24.7081 4.09466,-29.03898 30.62448,-31.42049 l 20.71429,-1.85947 v 14.31765 c 0,8.3305 3.69918,25.52737 8.8462,41.12457 14.7448,44.68161 11.38605,87.21451 -7.41763,93.93175 -3.14286,1.12272 -7.64286,1.42567 -10,0.67321 z"
       id="path3763"
       inkscape:connector-curvature="0"
       transform="scale(0.26458333)" />
    <path
       style="fill:none;stroke:#000000;stroke-width:0.26458332px;stroke-linecap:butt;stroke-linejoin:miter;stroke-opacity:1"
       d="m 123.22024,70.970237 c 27.97023,71.059523 28.72619,73.327383 28.72619,73.327383 l 5.29166,-14.3631 -27.97023,-61.988092"
       id="path3765"
       inkscape:connector-curvature="0" />
    <path
       style="fill:#000000;stroke-width:2.85714293"
       d="M 547.03397,470.09111 C 534.83955,439.0554 512.38217,381.96335 497.12869,343.21989 l -27.7336,-70.44266 10.32229,-4.05471 10.32229,-4.05472 47.85348,106.02555 c 26.31941,58.31405 49.3776,110.06342 51.24042,114.9986 3.12505,8.2792 2.56922,10.20466 -7.18821,24.9004 -5.81634,8.76003 -11.06218,15.92734 -11.65743,15.92734 -0.59524,0 -11.05953,-25.39286 -23.25396,-56.42858 z"
       id="path3767"
       inkscape:connector-curvature="0"
       transform="scale(0.26458333)" />
    <path
       style="fill:#000000;stroke-width:2.85714293"
       d="m 168.08338,808.63214 c 8.08758,-9.949 9.12362,-56.66597 1.89537,-85.46563 -1.84083,-7.33445 -1.7028,-7.40677 11.33233,-5.93754 15.53313,1.75083 33.33897,-5.05066 40.05464,-15.30006 2.39171,-3.65022 4.34857,-11.69165 4.34857,-17.86985 0,-21.04849 -27.18574,-36.56883 -51.36524,-29.32449 -5.94772,1.782 -12.46021,5.22349 -14.4722,7.64777 -2.92304,3.52206 -4.13066,3.66297 -6.00947,0.70115 -3.9482,-6.22403 -2.91793,-7.51303 10.88525,-13.61883 17.69144,-7.82577 46.65021,-14.37355 63.56974,-14.37355 16.1641,0 30.81758,-4.44222 39.00463,-11.82434 3.24414,-2.9252 7.13145,-5.31851 8.63846,-5.31851 4.49147,0 46.89168,-44.04726 46.89168,-48.7132 0,-2.36557 1.7701,-6.83715 3.93355,-9.93679 6.19371,-8.87395 29.75434,-68.0696 31.96119,-80.3019 1.09626,-6.07646 2.96281,-12.33383 4.14789,-13.90526 3.51089,-4.65551 6.33891,-21.42857 3.61296,-21.42857 -1.382,0 -4.21153,1.60715 -6.28785,3.57143 -3.1039,2.93643 -3.46173,1.79344 -2.01255,-6.42857 0.9694,-5.5 3.0003,-19.79028 4.5131,-31.75618 1.5128,-11.9659 4.8381,-27.39447 7.38957,-34.28571 2.55147,-6.89125 5.37085,-15.74382 6.26529,-19.6724 1.97037,-8.65425 20.4026,-36.28088 29.73002,-44.55999 17.8284,-15.82467 45.11989,-32.58286 53.06272,-32.58286 h 8.44737 l 49.44517,126.17711 c 43.82992,111.84776 49.02817,126.85461 45.77312,132.14286 -2.01966,3.28116 -24.91646,35.18546 -50.8818,70.89846 l -47.20972,64.93271 -50.23072,38.18291 c -27.62691,21.0006 -52.80216,39.5306 -55.94502,41.17778 -3.14286,1.6472 -46.21429,15.53362 -95.71429,30.85874 -49.5,15.32511 -91.92857,28.56611 -94.28571,29.42443 -3.62979,1.32177 -3.70449,0.8456 -0.48805,-3.11112 z m 160.51358,-143.8846 c 38.74193,-15.50145 6.06501,-55.58368 -36.06575,-44.23905 -28.36609,7.6382 -33.19294,32.2228 -8.52596,43.42522 14.49892,6.58463 29.48546,6.85815 44.59171,0.81383 z m 102.92513,-85.41908 c 23.48257,-12.14329 22.34208,-51.29298 -1.82835,-62.76261 -11.52858,-5.47066 -19.28747,-5.47066 -30.81605,0 -17.2752,8.19762 -24.08429,31.59772 -14.55606,50.02329 8.12794,15.71769 30.01664,21.62543 47.20046,12.73932 z M 450.71429,446.551 C 457.9556,442.13589 460,438.95164 460,432.08813 c 0,-13.07654 -4.54203,-19.27356 -16.82311,-22.95307 -8.41715,-2.52183 -13.46609,-2.49161 -21.40389,0.12809 -11.73444,3.87272 -16.05871,10.01901 -16.05871,22.82498 0,6.86351 2.04441,10.04776 9.28571,14.46287 5.10714,3.11389 13.14286,5.66161 17.85714,5.66161 4.71429,0 12.75,-2.54772 17.85715,-5.66161 z m 8.54065,-84.73304 c 9.45809,-7.03057 11.71509,-19.34078 4.92217,-26.84684 -7.69065,-8.49809 -33.41885,-13.07864 -49.42098,-8.79872 -16.45046,4.39983 -23.32756,10.39832 -23.32756,20.34729 0,14.81801 16.01881,23.17907 42.11209,21.9805 12.55111,-0.57652 20.1606,-2.55395 25.71428,-6.68223 z"
       id="path3769"
       inkscape:connector-curvature="0"
       transform="scale(0.26458333)" />
    <path
       style="fill:#000000;stroke-width:2.85714293"
       d="m 544.95008,377.15259 c -27.8654,-61.72333 -50.66437,-113.7365 -50.66437,-115.58482 0,-5.64486 16.09374,-6.82381 77.14286,-5.65113 73.66394,1.415 85.0558,3.78227 105.71429,21.96781 l 15.71428,13.83318 0.85615,32.40103 0.85616,32.40103 -47.99901,66.2725 c -26.39946,36.44987 -48.66433,66.34273 -49.4775,66.42857 -0.81317,0.0858 -24.27745,-50.34484 -52.14286,-112.06817 z"
       id="path3771"
       inkscape:connector-curvature="0"
       transform="scale(0.26458333)" />
    <path
       style="fill:#ffffff;stroke-width:2.85714293"
       d="m 131.80625,804.97047 c -19.9363,-16.77529 -29.97914,-49.94033 -30.22382,-99.80985 -0.15078,-30.73234 -0.0111,-31.42492 6.989,-34.65412 3.92857,-1.81228 14.53571,-4.10479 23.57143,-5.09446 l 16.42857,-1.79942 v 13.61648 c 0,7.48905 3.20902,25.17886 7.13117,39.31067 13.04231,46.99255 12.24179,81.23429 -2.13458,91.30388 -8.54831,5.98747 -11.73085,5.56728 -21.76177,-2.87318 z"
       id="path3773"
       inkscape:connector-curvature="0"
       transform="scale(0.26458333)" />
    <path
       style="fill:#ffffff;stroke-width:2.85714293"
       d="m 163.09524,819.62529 c 0.65476,-0.64903 45.54762,-15.18115 99.7619,-32.29352 l 98.57143,-31.11346 53.10276,-39.84828 53.10276,-39.84832 55.3368,-76.23825 c 30.43522,-41.93104 56.14614,-75.73805 57.13534,-75.12669 0.9892,0.61135 1.79854,-0.49658 1.79854,-2.46208 0,-3.76923 27.69672,-42.53596 77.89752,-109.03215 25.45177,-33.7135 30.35208,-38.90652 31.18005,-33.04238 1.43232,10.14485 -25.00414,60.937 -65.87303,126.56119 -19.31011,31.00678 -47.19454,76.2318 -61.96537,100.50006 C 502.07131,708.02283 477.57897,733.55589 410,767.33266 c -48.65446,24.31808 -85.3434,35.03745 -158.57299,46.33011 -39.77704,6.134 -92.06531,9.66352 -88.33177,5.96252 z"
       id="path3775"
       inkscape:connector-curvature="0"
       transform="scale(0.26458333)" />
    <path
       style="fill:#ffffff;stroke-width:2.85714293"
       d="m 567.76341,518.66254 c -0.81097,-2.75 -22.81807,-58.85897 -48.90466,-124.68661 -26.0866,-65.82763 -47.43018,-120.02328 -47.43018,-120.43478 0,-0.4115 3.85847,-2.09325 8.57438,-3.73722 10.42467,-3.63406 4.79962,-13.70385 55.62212,99.5729 21.50353,47.92857 42.21336,94.04822 46.02184,102.48812 3.80848,8.4399 6.92452,17.50961 6.92452,20.15491 0,4.47622 -15.60417,31.64268 -18.17527,31.64268 -0.63705,0 -1.82179,-2.25 -2.63275,-5 z"
       id="path3777"
       inkscape:connector-curvature="0"
       transform="scale(0.26458333)" />
  </g>
</svg>
